<svg width="499" height="286" viewBox="0 0 499 286" fill="none" xmlns="http://www.w3.org/2000/svg">
<path opacity="0.19" fill-rule="evenodd" clip-rule="evenodd" d="M130 285.599C122.268 285.599 116 279.331 116 271.599V211.539C116 203.807 122.268 197.539 130 197.539H192C199.732 197.539 206 203.807 206 211.539V271.599C206 279.331 199.732 285.599 192 285.599H130Z" fill="#9ECBFF"/>
<path opacity="0.21" fill-rule="evenodd" clip-rule="evenodd" d="M322.603 271.866C322.243 271.866 321.884 271.864 321.525 271.861V28.268C321.884 28.2652 322.243 28.2637 322.603 28.2637C391.047 28.2637 446.531 82.7957 446.531 150.065C446.531 217.333 391.047 271.866 322.603 271.866Z" fill="#F53D6B"/>
<path fill-rule="evenodd" clip-rule="evenodd" d="M20.8718 159.588C21.9282 160.865 21.7318 162.733 20.4332 163.762L12.7016 169.888C11.403 170.917 9.49388 170.717 8.4375 169.44L2.19387 161.896C1.13749 160.62 1.33387 158.751 2.6325 157.722L10.3641 151.596C11.6627 150.567 13.5718 150.768 14.6282 152.044L20.8718 159.588Z" fill="#FF6701"/>
<path fill-rule="evenodd" clip-rule="evenodd" d="M496.018 2.02215C497.666 2.19164 498.859 3.66451 498.682 5.31189L497.65 14.9156C497.473 16.563 495.994 17.7611 494.345 17.5916L484.402 16.5689C482.753 16.3995 481.561 14.9266 481.738 13.2792L482.769 3.67547C482.946 2.0281 484.426 0.83004 486.074 0.999535L496.018 2.02215Z" fill="#7047EB"/>
</svg>
