<svg width="757" height="769" viewBox="0 0 757 769" fill="none" xmlns="http://www.w3.org/2000/svg">
<g opacity="0.16">
<path d="M407.188 496.241C341.134 354.588 402.419 186.209 544.072 120.155C685.725 54.1012 854.104 115.386 920.158 257.039C986.212 398.692 924.927 567.071 783.274 633.125C641.621 699.179 473.242 637.894 407.188 496.241Z" stroke="#707070"/>
<path d="M459.381 608.17C393.445 466.768 454.823 298.591 596.477 232.537C738.13 166.483 906.415 227.566 972.352 368.968C1038.29 510.37 976.91 678.547 835.256 744.601C693.602 810.655 525.318 749.572 459.381 608.17Z" stroke="#707070"/>
<path d="M714.054 489.414C648.117 348.013 709.496 179.836 851.149 113.781C992.803 47.7273 1161.09 108.811 1227.02 250.212C1292.96 391.614 1231.58 559.791 1089.93 625.845C948.275 691.9 779.991 630.816 714.054 489.414Z" stroke="#707070"/>
</g>
<path fill-rule="evenodd" clip-rule="evenodd" d="M635.283 90.177C636.868 89.6926 638.545 90.5843 639.029 92.1688L641.732 101.01C642.216 102.594 641.325 104.271 639.74 104.756L630.909 107.456C629.324 107.94 627.647 107.048 627.163 105.464L624.46 96.623C623.976 95.0385 624.867 93.3614 626.452 92.877L635.283 90.177Z" fill="#588FFF"/>
<path fill-rule="evenodd" clip-rule="evenodd" d="M302.246 710.287C302.619 708.673 304.23 707.667 305.844 708.039L314.852 710.119C316.466 710.492 317.473 712.102 317.1 713.717L315.02 722.725C314.648 724.339 313.037 725.346 311.423 724.973L302.415 722.893C300.8 722.521 299.794 720.91 300.166 719.295L302.246 710.287Z" fill="#FF761B"/>
<path fill-rule="evenodd" clip-rule="evenodd" d="M75.3424 368.068C74.4644 366.663 74.8916 364.812 76.2967 363.934L84.1367 359.035C85.5418 358.157 87.3926 358.584 88.2706 359.989L93.1696 367.829C94.0476 369.234 93.6203 371.085 92.2152 371.963L84.3752 376.862C82.9701 377.74 81.1193 377.313 80.2413 375.908L75.3424 368.068Z" fill="#825EEE"/>
<path fill-rule="evenodd" clip-rule="evenodd" d="M722.518 423.372C723.647 422.16 725.546 422.094 726.758 423.224L729.341 425.633C730.553 426.763 730.619 428.661 729.489 429.873L727.08 432.457C725.95 433.669 724.052 433.735 722.84 432.605L720.256 430.196C719.044 429.066 718.978 427.167 720.108 425.955L722.518 423.372Z" fill="#282A5B"/>
</svg>
