<svg width="17" height="16" viewBox="0 0 17 16" fill="none" xmlns="http://www.w3.org/2000/svg">
<path fill-rule="evenodd" clip-rule="evenodd" d="M1.13237 6.6726C5.55405 4.48521 8.50253 3.04314 9.97781 2.34641C14.19 0.357097 15.0653 0.0115324 15.6358 0.000121664C15.7612 -0.00238801 16.0418 0.0329197 16.2235 0.200352C16.377 0.341728 16.4192 0.532707 16.4394 0.666747C16.4596 0.800787 16.4848 1.10613 16.4648 1.34472C16.2365 4.06794 15.2488 10.6765 14.7463 13.7265C14.5337 15.0171 14.1151 15.4498 13.7098 15.4922C12.8289 15.5842 12.1601 14.8313 11.307 14.1963C9.97203 13.2027 9.21787 12.5842 7.92207 11.6146C6.42455 10.4941 7.39533 9.87821 8.24876 8.87174C8.47211 8.60834 12.353 4.60024 12.4281 4.23665C12.4375 4.19117 12.4462 4.02167 12.3575 3.93216C12.2688 3.84266 12.138 3.87326 12.0435 3.89761C11.9096 3.93211 9.777 5.53261 5.64569 8.69909C5.04036 9.17106 4.49207 9.40102 4.00082 9.38897C3.45926 9.37568 2.4175 9.04128 1.64307 8.75545C0.693194 8.40486 -0.061748 8.2195 0.00399051 7.62409C0.0382312 7.31396 0.414357 6.9968 1.13237 6.6726Z" fill="url(#paint0_linear_4_6)"/>
<defs>
<linearGradient id="paint0_linear_4_6" x1="16.1991" y1="0.103333" x2="5.9768" y2="9.89696" gradientUnits="userSpaceOnUse">
<stop stop-color="#2AABEE"/>
<stop offset="1" stop-color="#229ED9"/>
</linearGradient>
</defs>
</svg>
