<svg width="27" height="27" viewBox="0 0 27 27" fill="none" xmlns="http://www.w3.org/2000/svg">
<rect width="27" height="27" rx="13.5" fill="url(#paint0_linear_8_95)"/>
<path fill-rule="evenodd" clip-rule="evenodd" d="M6.11105 13.3577C10.0466 11.643 12.6709 10.5126 13.9839 9.96649C17.733 8.40712 18.5121 8.13624 19.0198 8.12729C19.1315 8.12533 19.3812 8.153 19.543 8.28425C19.6795 8.39507 19.7171 8.54477 19.7351 8.64984C19.7531 8.75492 19.7755 8.99427 19.7577 9.18129C19.5545 11.316 18.6754 16.4962 18.2282 18.8871C18.0389 19.8988 17.6663 20.238 17.3056 20.2712C16.5216 20.3433 15.9263 19.7531 15.167 19.2553C13.9788 18.4765 13.3076 17.9916 12.1542 17.2316C10.8214 16.3532 11.6854 15.8705 12.445 15.0815C12.6438 14.8751 16.098 11.7332 16.1648 11.4482C16.1732 11.4126 16.181 11.2797 16.102 11.2095C16.0231 11.1394 15.9066 11.1634 15.8225 11.1824C15.7034 11.2095 13.8052 12.4641 10.1281 14.9462C9.58936 15.3162 9.10136 15.4964 8.66412 15.487C8.1821 15.4766 7.25489 15.2144 6.5656 14.9904C5.72016 14.7156 5.04822 14.5703 5.10673 14.1035C5.13721 13.8604 5.47198 13.6118 6.11105 13.3577Z" fill="white"/>
<defs>
<linearGradient id="paint0_linear_8_95" x1="13.5" y1="0" x2="13.5" y2="26.7998" gradientUnits="userSpaceOnUse">
<stop stop-color="#2AABEE"/>
<stop offset="1" stop-color="#229ED9"/>
</linearGradient>
</defs>
</svg>
