<svg width="256" height="204" viewBox="0 0 256 204" fill="none" xmlns="http://www.w3.org/2000/svg">
<mask id="mask0_8_125" style="mask-type:alpha" maskUnits="userSpaceOnUse" x="0" y="0" width="256" height="204">
<path fill-rule="evenodd" clip-rule="evenodd" d="M140.604 203.058C123.615 205.069 109.145 192.548 92.233 190.082C63.9292 185.955 27.0402 202.665 7.9497 183.716C-9.4696 166.426 5.42612 136.472 17.5297 115.931C27.9051 98.3239 51.077 91.0452 69.3486 79.5207C80.7104 72.3544 95.5199 70.2105 104.726 60.9327C120.395 45.1429 119.763 17.7846 140.604 7.715C161.131 -2.20278 190.813 -2.1315 209.505 10.3077C228.516 22.9591 224.097 49.2639 232.588 68.9286C239.571 85.1012 260.343 99.2488 255.111 115.931C249.538 133.7 222.041 137.027 207.177 149.949C197.076 158.73 192.557 171.062 182.04 179.452C169.628 189.355 157.167 201.098 140.604 203.058Z" fill="#C4C4C4"/>
</mask>
<g mask="url(#mask0_8_125)">
<path fill-rule="evenodd" clip-rule="evenodd" d="M124.889 189.165C107.898 191.175 93.4258 178.658 76.5115 176.192C48.2039 172.066 11.3098 188.772 -7.78329 169.828C-25.2049 152.542 -10.3072 122.595 1.79803 102.06C12.1748 84.4567 35.3499 77.1797 53.624 65.6579C64.9874 58.4932 79.7988 56.35 89.0068 47.0744C104.678 31.2885 104.045 3.93684 124.889 -6.13026C145.418 -16.0456 175.105 -15.9743 193.8 -3.53824C212.813 9.11014 208.393 35.4086 216.885 55.0683C223.869 71.2371 244.644 85.3811 239.411 102.06C233.838 119.824 206.337 123.151 191.471 136.069C181.369 144.847 176.849 157.178 166.331 165.564C153.917 175.465 141.455 187.205 124.889 189.165Z" stroke="#F9F9F9" stroke-width="4.30886"/>
<path fill-rule="evenodd" clip-rule="evenodd" d="M106.682 157.931C91.8907 159.681 79.2924 148.784 64.568 146.638C39.9254 143.047 7.8081 157.588 -8.81294 141.098C-23.979 126.05 -11.0101 99.9825 -0.472141 82.1072C8.56111 66.7844 28.7356 60.4499 44.6438 50.4205C54.5359 44.1838 67.4297 42.3181 75.4455 34.244C89.0874 20.5027 88.5368 -3.30628 106.682 -12.0695C124.554 -20.7005 150.397 -20.6385 166.671 -9.81319C183.223 1.19697 179.375 24.0891 186.767 41.2025C192.847 55.277 210.932 67.589 206.377 82.1072C201.525 97.5707 177.585 100.467 164.643 111.712C155.849 119.353 151.914 130.086 142.759 137.387C131.951 146.005 121.103 156.224 106.682 157.931Z" stroke="#F9F9F9" stroke-width="4.30886"/>
<path fill-rule="evenodd" clip-rule="evenodd" d="M82.5614 131.32C69.4201 132.878 58.227 123.175 45.1451 121.263C23.2513 118.064 -5.28346 131.015 -20.0505 116.329C-33.5249 102.928 -22.0026 79.7119 -12.6401 63.7924C-4.61444 50.1461 13.3097 44.5047 27.4434 35.5724C36.232 30.0182 47.6876 28.3567 54.8092 21.1659C66.9295 8.92802 66.4402 -12.276 82.5614 -20.0804C98.4395 -27.7671 121.4 -27.7119 135.859 -18.071C150.564 -8.26552 147.146 12.122 153.714 27.3631C159.115 39.8977 175.183 50.8627 171.136 63.7924C166.825 77.5639 145.556 80.143 134.057 90.1584C126.245 96.9636 122.748 106.522 114.614 113.024C105.012 120.699 95.3737 129.8 82.5614 131.32Z" stroke="#F9F9F9" stroke-width="4.30886"/>
</g>
</svg>
