<svg width="22" height="24" viewBox="0 0 22 24" fill="none" xmlns="http://www.w3.org/2000/svg">
<path d="M21.9985 12.0004C21.9985 17.7928 17.8804 22.5816 12.5307 23.3587C12.0305 23.431 11.5187 23.4688 10.9992 23.4688C10.3996 23.4688 9.81075 23.4189 9.23732 23.3225C4.00014 22.4433 0 17.7085 0 12.0004C0 5.66633 4.92503 0.53125 11 0.53125C17.075 0.53125 22 5.66633 22 12.0004H21.9985Z" fill="#383D38"/>
<path d="M4.46108 5.58984L9.53408 12.6616L4.42947 18.4115H5.57865L10.0482 13.3776L13.6591 18.4115H17.5691L12.2109 10.9419L16.9625 5.58984H15.8133L11.6975 10.2259L8.37181 5.58984H4.46184H4.46108ZM6.15053 6.47221H7.94636L15.8781 17.5291H14.0822L6.15053 6.47221Z" fill="white"/>
</svg>
