<svg width="41" height="60" viewBox="0 0 41 60" fill="none" xmlns="http://www.w3.org/2000/svg">
<path fill-rule="evenodd" clip-rule="evenodd" d="M26.4248 22.1075C27.3755 22.3814 28.3745 21.8497 28.6646 20.8992C28.9707 19.852 29.1319 18.7565 29.1319 17.6449C29.1319 11.3296 23.9916 6.1742 17.659 6.1742C11.3424 6.1742 6.18602 11.3135 6.18602 17.6449C6.18602 19.0465 6.42773 20.4159 6.92725 21.7047C7.20119 22.4297 7.87796 22.8647 8.60306 22.8647C8.81253 22.8647 9.02204 22.8325 9.2315 22.7519C10.1661 22.3975 10.6334 21.3664 10.2789 20.432C9.9405 19.5459 9.76324 18.6115 9.76324 17.6449C9.76324 13.3111 13.2921 9.76684 17.6428 9.76684C21.9774 9.76684 25.5224 13.295 25.5224 17.6449C25.5224 18.4021 25.4096 19.1593 25.2001 19.8842C24.9262 20.8348 25.4741 21.8336 26.4248 22.1075L26.4248 22.1075Z" fill="#333333"/>
<path fill-rule="evenodd" clip-rule="evenodd" d="M40.0404 36.0241C40.0404 35.9464 40.0275 35.8687 40.0016 35.791C39.4191 33.2664 37.7361 31.6869 35.613 31.6869C34.9916 31.6869 34.3961 31.8164 33.8524 32.0494C33.2699 30.2887 31.6128 29.0069 29.658 29.0069C28.9331 29.0069 28.247 29.1882 27.6515 29.4989C26.9265 28.0489 25.4248 27.0649 23.703 27.0649C23.1593 27.0649 22.6415 27.1685 22.1625 27.3368V21.951C22.1625 19.517 20.1818 17.5232 17.7351 17.5232C15.3013 17.5232 13.3077 19.504 13.3077 21.951V40.413L11.7024 37.6295C11.1069 36.5549 10.1619 35.8169 9.02267 35.5321C7.92228 35.2602 6.74423 35.4544 5.77332 36.0629C4.14217 37.0987 3.62433 39.4161 4.43991 41.9407C4.43991 41.9537 4.45286 41.9666 4.45286 41.9796C4.62116 42.4845 8.7767 54.2531 13.722 59.1858C14.0068 59.4707 14.3692 59.6131 14.7446 59.6131C15.1201 59.6131 15.4826 59.4707 15.7674 59.1858C16.337 58.6162 16.324 57.7099 15.7674 57.1402C11.3658 52.7513 7.36563 41.5265 7.18438 41.0345C6.82191 39.8952 6.88665 38.7817 7.3268 38.4969C7.62454 38.3157 7.97408 38.2509 8.31067 38.3286C8.67316 38.4192 8.95796 38.6652 9.17803 39.0536L13.4889 46.5239C13.8126 47.0936 14.4858 47.3655 15.1071 47.1972C15.7415 47.0288 16.1816 46.4592 16.1816 45.7989V21.9639C16.1816 21.1224 16.8678 20.4232 17.7222 20.4232C18.5636 20.4232 19.2627 21.1094 19.2627 21.9639V38.4969C19.2627 39.2996 19.91 39.934 20.6997 39.934C21.5023 39.934 22.1366 39.2867 22.1366 38.4969V31.3633C22.1366 31.3503 22.1496 31.3374 22.1496 31.3244C22.2272 30.5476 22.8875 29.9521 23.6772 29.9521C24.5186 29.9521 25.2177 30.6382 25.2177 31.4927V33.4477V34.9883V39.0278C25.2177 39.8304 25.865 40.4648 26.6546 40.4648C27.4573 40.4648 28.0916 39.8175 28.0916 39.0278V34.9883V33.4477C28.0916 32.6061 28.7777 31.907 29.6321 31.907C30.4736 31.907 31.1727 32.5932 31.1727 33.4477V35.3768C31.1727 35.4674 31.1856 35.558 31.1986 35.6486C31.1856 35.804 31.1727 35.9594 31.1727 36.1277V39.0407C31.1727 39.8434 31.82 40.4778 32.6096 40.4778C33.3993 40.4778 34.0466 39.8304 34.0466 39.0407V36.1277C34.0466 35.2861 34.7327 34.587 35.5871 34.587C36.5581 34.587 36.9853 35.7393 37.1277 36.3348C37.2053 37.746 37.8656 50.874 35.4059 56.9072C35.1081 57.6452 35.4577 58.4867 36.1956 58.7845C36.3768 58.8622 36.5581 58.8881 36.7393 58.8881C37.3089 58.8881 37.8526 58.5515 38.0727 57.9948C40.9466 51.0294 40.0793 36.6326 40.0404 36.0241V36.0241Z" fill="#92AC90"/>
<path fill-rule="evenodd" clip-rule="evenodd" d="M3.56128 26.671C3.83526 26.671 4.12534 26.6066 4.3832 26.4776C5.26959 26.0264 5.60803 24.9467 5.15678 24.0603C4.12536 22.062 3.60963 19.9187 3.60963 17.6464C3.60963 9.89487 9.91101 3.59374 17.6628 3.59374C25.4147 3.59374 31.7161 9.89487 31.7161 17.6464C31.7161 18.8712 31.5549 20.0798 31.2487 21.2562C30.9908 22.2232 31.571 23.2062 32.5219 23.4479C33.4888 23.7058 34.4719 23.1256 34.7137 22.1748C35.1004 20.7083 35.2938 19.1935 35.2938 17.6464C35.2938 7.91268 27.3808 1.00002e-05 17.6467 1.00002e-05C7.91262 1.00002e-05 -0.000380023 7.91268 -0.000380023 17.6464C-0.000380023 20.4344 0.67649 23.2223 1.93355 25.688C2.27199 26.3165 2.90051 26.671 3.56127 26.671L3.56128 26.671Z" fill="#333333"/>
</svg>
