<svg width="74" height="55" viewBox="0 0 74 55" fill="none" xmlns="http://www.w3.org/2000/svg">
<path fill-rule="evenodd" clip-rule="evenodd" d="M67.8301 44.4C67.1494 44.4 66.5969 43.8475 66.5969 43.1667V3.70001C66.5969 3.02168 66.0444 2.46668 65.3637 2.46668H8.63628C7.95555 2.46668 7.40308 3.02168 7.40308 3.70001V43.1667C7.40308 43.8475 6.85061 44.4 6.16988 44.4C5.48915 44.4 4.93667 43.8475 4.93667 43.1667V3.70001C4.93667 1.66008 6.59657 1e-05 8.63629 1e-05H65.3637C67.4034 1e-05 69.0633 1.66008 69.0633 3.70001V43.1667C69.0633 43.8475 68.5108 44.4 67.8301 44.4H67.8301Z" fill="#92AC90"/>
<path fill-rule="evenodd" clip-rule="evenodd" d="M67.8333 54.2634H6.16667C2.76514 54.2634 0 51.4982 0 48.0967C0 47.4159 0.55253 46.8634 1.23333 46.8634H28.3667C29.0475 46.8634 29.6 47.4159 29.6 48.0967C29.6 48.7775 29.0475 49.33 28.3667 49.33H2.67879C3.18692 50.7656 4.55839 51.7967 6.16666 51.7967H67.8333C69.4416 51.7967 70.8131 50.7656 71.3212 49.33H45.6333C44.9525 49.33 44.4 48.7775 44.4 48.0967C44.4 47.4159 44.9525 46.8634 45.6333 46.8634H72.7667C73.4475 46.8634 74 47.4159 74 48.0967C74 51.4982 71.2349 54.2634 67.8333 54.2634Z" fill="#92AC90"/>
<path fill-rule="evenodd" clip-rule="evenodd" d="M25.8959 35.2667C25.6074 35.2667 25.3189 35.1656 25.0847 34.9609L15.2216 26.3295C14.9529 26.0952 14.8 25.7598 14.8 25.4022C14.8 25.0446 14.9529 24.7092 15.2216 24.4749L25.0847 15.8435C25.5951 15.3922 26.3718 15.4415 26.8255 15.9594C27.2743 16.4724 27.2225 17.2492 26.7096 17.698L17.9044 25.4022L26.7071 33.1064C27.22 33.5552 27.2718 34.3321 26.823 34.845C26.5789 35.1237 26.2386 35.2667 25.8959 35.2667L25.8959 35.2667Z" fill="white"/>
<path fill-rule="evenodd" clip-rule="evenodd" d="M33.2981 37.7399C33.1697 37.7399 33.0389 37.7202 32.9081 37.6783C32.2615 37.4611 31.9135 36.7628 32.1282 36.1164L39.5321 13.9093C39.7468 13.2629 40.4403 12.91 41.0919 13.1296C41.7385 13.3468 42.0865 14.045 41.8718 14.6915L34.4679 36.8985C34.2951 37.4118 33.8139 37.7399 33.2981 37.7399Z" fill="white"/>
<path fill-rule="evenodd" clip-rule="evenodd" d="M48.0973 35.2667C47.7543 35.2667 47.4139 35.1237 47.1696 34.845C46.7206 34.3321 46.7724 33.5553 47.2856 33.1065L56.0937 25.4027L47.2856 17.6989C46.7724 17.2501 46.7206 16.4733 47.1696 15.9604C47.6186 15.4425 48.3983 15.3956 48.9115 15.8445L58.7806 24.4755C59.047 24.7097 59.2 25.0451 59.2 25.4027C59.2 25.7603 59.047 26.0956 58.7781 26.3299L48.909 34.9609C48.6746 35.1656 48.386 35.2667 48.0973 35.2667H48.0973Z" fill="white"/>
</svg>
